<svg width="51" height="52" viewBox="0 0 51 52" fill="none" xmlns="http://www.w3.org/2000/svg">
<rect x="0.308594" y="0.872559" width="50.2852" height="50.2852" rx="13.5906" fill="#F5F5F7"/>
<path fill-rule="evenodd" clip-rule="evenodd" d="M11.0938 20.5998C10.6809 20.5998 10.4744 20.5998 10.3151 20.516C10.1782 20.444 10.0611 20.3218 9.9951 20.1819C9.91823 20.0191 9.92676 19.8211 9.94384 19.425C9.98739 18.4145 10.1004 17.7303 10.3934 17.1552C10.8128 16.332 11.4821 15.6627 12.3053 15.2433C13.2412 14.7664 14.4663 14.7664 16.9165 14.7664H32.0832C34.5334 14.7664 35.7585 14.7664 36.6944 15.2433C37.5176 15.6627 38.1869 16.332 38.6063 17.1552C38.8993 17.7303 39.0123 18.4145 39.0558 19.425C39.0729 19.8211 39.0814 20.0191 39.0046 20.1819C38.9385 20.3218 38.8215 20.444 38.6846 20.516C38.5253 20.5998 38.3188 20.5998 37.9059 20.5998H11.0938ZM9.9165 24.6831C9.9165 24.2747 9.9165 24.0705 9.99598 23.9146C10.0659 23.7774 10.1774 23.6658 10.3146 23.5959C10.4706 23.5164 10.6748 23.5164 11.0832 23.5164H37.9165C38.3249 23.5164 38.5291 23.5164 38.685 23.5959C38.8222 23.6658 38.9338 23.7774 39.0037 23.9146C39.0832 24.0705 39.0832 24.2747 39.0832 24.6831V31.0998C39.0832 33.55 39.0832 34.7751 38.6063 35.711C38.1869 36.5342 37.5176 37.2035 36.6944 37.6229C35.7585 38.0998 34.5334 38.0998 32.0832 38.0998H16.9165C14.4663 38.0998 13.2412 38.0998 12.3053 37.6229C11.4821 37.2035 10.8128 36.5342 10.3934 35.711C9.9165 34.7751 9.9165 33.55 9.9165 31.0998V24.6831ZM17.2082 29.3498C16.4028 29.3498 15.7498 30.0027 15.7498 30.8081C15.7498 31.6135 16.4028 32.2664 17.2082 32.2664H23.0415C23.8469 32.2664 24.4998 31.6135 24.4998 30.8081C24.4998 30.0027 23.8469 29.3498 23.0415 29.3498H17.2082Z" fill="black"/>
</svg>
