<svg width="42" height="42" viewBox="0 0 42 42" fill="none" xmlns="http://www.w3.org/2000/svg">
    <path fill-rule="evenodd" clip-rule="evenodd" d="M15.7757 7.43961C15.7757 6.49716 15.0117 5.73315 14.0693 5.73315C13.1268 5.73315 12.3628 6.49716 12.3628 7.43961V9.14612C11.5795 9.1466 10.8965 9.15142 10.3236 9.19824C9.64892 9.25336 8.97791 9.37506 8.33222 9.70405C7.36895 10.1949 6.58578 10.978 6.09497 11.9413C5.76598 12.587 5.64428 13.258 5.58916 13.9326C5.53694 14.5718 5.53696 15.3479 5.53699 16.2474V29.3481C5.53696 30.2476 5.53694 31.0237 5.58916 31.6628C5.64428 32.3375 5.76598 33.0085 6.09497 33.6542C6.58578 34.6174 7.36895 35.4006 8.33222 35.8914C8.97791 36.2204 9.64892 36.3421 10.3236 36.3972C10.9627 36.4495 11.7389 36.4494 12.6383 36.4494H29.1521C30.0516 36.4494 30.8275 36.4495 31.4667 36.3972C32.1413 36.3421 32.8123 36.2204 33.458 35.8914C34.4213 35.4006 35.2044 34.6174 35.6953 33.6542C36.0242 33.0085 36.1459 32.3375 36.2011 31.6628C36.2533 31.0236 36.2533 30.2476 36.2532 29.3481V16.2474C36.2533 15.3478 36.2533 14.5718 36.2011 13.9326C36.1459 13.258 36.0242 12.587 35.6953 11.9413C35.2044 10.978 34.4213 10.1949 33.458 9.70405C32.8123 9.37506 32.1413 9.25336 31.4667 9.19824C30.8937 9.15142 30.2107 9.1466 29.4274 9.14612V7.43961C29.4274 6.49716 28.6634 5.73315 27.7209 5.73315C26.7785 5.73315 26.0145 6.49716 26.0145 7.43961V9.14607H15.7757V7.43961ZM14.5691 24.0044C13.9027 23.338 13.9027 22.2575 14.5691 21.5911L17.982 18.1782C18.6484 17.5118 19.7289 17.5118 20.3953 18.1782C21.0617 18.8446 21.0617 19.925 20.3953 20.5915L19.8955 21.0913H26.0145C26.9569 21.0913 27.7209 21.8553 27.7209 22.7977C27.7209 23.7402 26.9569 24.5042 26.0145 24.5042H19.8955L20.3953 25.004C21.0617 25.6704 21.0617 26.7509 20.3953 27.4173C19.7289 28.0837 18.6484 28.0837 17.982 27.4173L14.5691 24.0044Z" />
</svg>
