<svg width="42" height="42" viewBox="0 0 42 42" fill="none" xmlns="http://www.w3.org/2000/svg">
    <path fill-rule="evenodd" clip-rule="evenodd" d="M26.0134 7.43961C26.0134 6.49716 26.7775 5.73315 27.7199 5.73315C28.6624 5.73315 29.4264 6.49716 29.4264 7.43961V9.14612C30.2097 9.1466 30.8926 9.15142 31.4656 9.19824C32.1403 9.25336 32.8113 9.37506 33.457 9.70405C34.4202 10.1949 35.2034 10.978 35.6942 11.9413C36.0232 12.587 36.1449 13.258 36.2 13.9326C36.2522 14.5718 36.2522 15.3479 36.2522 16.2474V29.3481C36.2522 30.2476 36.2522 31.0237 36.2 31.6628C36.1449 32.3375 36.0232 33.0085 35.6942 33.6542C35.2034 34.6174 34.4202 35.4006 33.457 35.8914C32.8113 36.2204 32.1403 36.3421 31.4656 36.3972C30.8265 36.4495 30.0503 36.4494 29.1508 36.4494H12.637C11.7376 36.4494 10.9616 36.4495 10.3225 36.3972C9.64788 36.3421 8.97687 36.2204 8.33118 35.8914C7.36791 35.4006 6.58475 34.6174 6.09393 33.6542C5.76494 33.0085 5.64324 32.3375 5.58812 31.6628C5.5359 31.0236 5.53592 30.2476 5.53596 29.3481V16.2474C5.53592 15.3478 5.5359 14.5718 5.58812 13.9326C5.64324 13.258 5.76494 12.587 6.09393 11.9413C6.58475 10.978 7.36791 10.1949 8.33118 9.70405C8.97687 9.37506 9.64788 9.25336 10.3225 9.19824C10.8955 9.15142 11.5785 9.1466 12.3618 9.14612V7.43961C12.3618 6.49716 13.1258 5.73315 14.0682 5.73315C15.0107 5.73315 15.7747 6.49716 15.7747 7.43961V9.14607H26.0134V7.43961ZM27.2201 24.0044C27.8865 23.338 27.8865 22.2575 27.2201 21.5911L23.8072 18.1782C23.1408 17.5118 22.0603 17.5118 21.3939 18.1782C20.7275 18.8446 20.7275 19.925 21.3939 20.5915L21.8937 21.0913H15.7747C14.8323 21.0913 14.0682 21.8553 14.0682 22.7977C14.0682 23.7402 14.8323 24.5042 15.7747 24.5042H21.8937L21.3939 25.004C20.7275 25.6704 20.7275 26.7509 21.3939 27.4173C22.0603 28.0837 23.1408 28.0837 23.8072 27.4173L27.2201 24.0044Z" />
</svg>
