<?xml version="1.0" encoding="UTF-8"?>
<svg width="39px" height="39px" viewBox="0 0 39 39" version="1.1" xmlns="http://www.w3.org/2000/svg" xmlns:xlink="http://www.w3.org/1999/xlink">
    <!-- Generator: Sketch 52.6 (67491) - http://www.bohemiancoding.com/sketch -->
    <title>call</title>
    <desc>Created with Sketch.</desc>
    <g id="Page-1" stroke="none" stroke-width="1" fill="none" fill-rule="evenodd">
        <g id="Kiosk_2_CheckIn" transform="translate(-110.000000, -338.000000)" fill="#FFFFFF" fill-rule="nonzero">
            <g id="call" transform="translate(110.000000, 337.500000)">
                <path d="M30.1088929,39.5 C26.552292,39.4969118 23.0511893,38.617943 19.914882,36.9407441 L18.9470962,36.4030853 C12.2602349,32.807885 6.77814039,27.3257905 3.18294011,20.6389292 L2.64528131,19.6711434 C0.924393563,16.5169606 0.0153277725,12.9841683 -1.05822187e-13,9.39110708 L-1.05822187e-13,7.95018149 C-0.000908376936,6.80379704 0.455849934,5.70448042 1.26887477,4.89627949 L4.90344828,1.26170599 C5.25642252,0.905986051 5.75468185,0.734531164 6.25180761,0.797725116 C6.74893336,0.860919068 7.18844882,1.15158261 7.44119782,1.58430127 L12.280127,9.88575318 C12.7694636,10.7307132 12.6281642,11.79929 11.9360254,12.4880218 L7.87132486,16.5527223 C7.53376927,16.8865748 7.4551013,17.4022871 7.6777677,17.8215971 L8.43049002,19.2410163 C11.1339286,24.2486694 15.2464191,28.3536827 20.2589837,31.0480036 L21.6784029,31.8222323 C22.0977129,32.0448987 22.6134252,31.9662307 22.9472777,31.6286751 L27.0119782,27.5639746 C27.70071,26.8718358 28.7692868,26.7305364 29.6142468,27.219873 L37.9156987,32.0588022 C38.3484174,32.3115512 38.6390809,32.7510666 38.7022749,33.2481924 C38.7654688,33.7453182 38.5940139,34.2435775 38.238294,34.5965517 L34.6037205,38.2311252 C33.7955196,39.0441501 32.696203,39.5009084 31.5498185,39.5 L30.1088929,39.5 Z" id="Icon-color"></path>
            </g>
        </g>
    </g>
</svg>