<svg width="84" height="69" xmlns="http://www.w3.org/2000/svg" xmlns:xlink="http://www.w3.org/1999/xlink"><defs><path d="M55.586 78.246c18.176 0 33.223-15.082 33.223-33.258 0-18.175-15.082-33.222-33.258-33.222-16.735 0-30.832 12.832-32.906 29.039 10.441.035 19.265 7.664 21.128 17.683 3.481-1.476 7.524-2.355 11.813-2.355 8.227 0 15.398 3.058 19.793 7.875-4.957 5.203-12.094 8.402-19.828 8.402-4.535 0-8.824-1.125-12.621-3.058-.633 1.828-1.477 3.55-2.602 5.097 4.606 2.426 9.774 3.797 15.258 3.797zm-.035-27.703c-6.399 0-11.25-5.59-11.25-12.55 0-6.575 4.957-12.27 11.25-12.27 6.328 0 11.32 5.695 11.285 12.27 0 6.96-4.852 12.515-11.285 12.55zM22.539 79.371c9.281 0 16.98-7.629 16.98-16.98 0-9.317-7.699-16.98-16.98-16.98-9.316 0-16.98 7.663-16.98 16.98 0 9.351 7.664 16.98 16.98 16.98zm-2.004-7.031c-.562 0-1.265-.246-1.722-.703l-6.329-6.961c-.28-.281-.457-.914-.457-1.406 0-1.23.95-2.145 2.145-2.145.703 0 1.23.316 1.617.738l4.64 5.028 8.684-12.059a2.197 2.197 0 011.793-.95c1.16 0 2.18.915 2.18 2.11 0 .387-.176.844-.492 1.266L22.293 71.53c-.352.492-1.02.809-1.758.809z" id="a"/></defs><g transform="translate(-5 -11)" fill-rule="nonzero" fill="none"><use fill="#000" xlink:href="#a"/><use fill="#FFF" xlink:href="#a"/></g></svg>