<svg width="42" height="42" viewBox="0 0 42 42" fill="none" xmlns="http://www.w3.org/2000/svg">
    <path d="M5.90002 30.875C5.90002 30.1211 6.51116 29.51 7.26502 29.51H35.2475C36.0014 29.51 36.6125 30.1211 36.6125 30.875C36.6125 33.8905 34.168 36.335 31.1525 36.335H11.36C8.34455 36.335 5.90002 33.8905 5.90002 30.875Z" />
    <path fill-rule="evenodd" clip-rule="evenodd" d="M7.26502 29.51C6.51116 29.51 5.90002 30.1211 5.90002 30.875C5.90002 33.8905 8.34455 36.335 11.36 36.335H31.1525C34.168 36.335 36.6125 33.8905 36.6125 30.875C36.6125 30.1211 36.0014 29.51 35.2475 29.51H7.26502Z" />
    <path fill-rule="evenodd" clip-rule="evenodd" d="M25.8264 13.0488C26.1773 12.3554 26.3749 11.5713 26.3749 10.7411C26.3749 7.91406 24.0832 5.62231 21.2562 5.62231C18.4292 5.62231 16.1375 7.91406 16.1375 10.7411C16.1375 11.5713 16.3351 12.3554 16.686 13.0488C11.4222 14.7116 7.6062 19.6338 7.6062 25.4473C7.6062 25.8063 7.89722 26.0973 8.2562 26.0973H34.2562C34.6152 26.0973 34.9062 25.8063 34.9062 25.4473C34.9062 19.6338 31.0902 14.7116 25.8264 13.0488ZM22.9625 10.7411C22.9625 11.6834 22.1985 12.4473 21.2562 12.4473C20.3139 12.4473 19.5499 11.6834 19.5499 10.7411C19.5499 9.79873 20.3139 9.03481 21.2562 9.03481C22.1985 9.03481 22.9625 9.79873 22.9625 10.7411Z" />
</svg>
