<svg width="105" height="105" xmlns="http://www.w3.org/2000/svg" xmlns:xlink="http://www.w3.org/1999/xlink"><defs><path d="M86.996 104.262c11.88 0 17.938-6 17.938-17.76v-68.54c0-11.701-6.059-17.7-17.938-17.7H18.871C6.99.262.934 6.202.934 17.962v68.54c0 11.76 6.058 17.76 17.937 17.76h68.125zM56.824 80.8c-2.495 0-4.217-2.079-3.742-4.574L55.4 65.061H44.886l-2.614 12.176c-.415 2.376-1.96 3.564-4.335 3.564-2.554 0-4.396-2.138-3.861-4.574l2.316-11.225h-5.048c-2.02 0-3.445-1.544-3.445-3.564 0-2.435 1.722-4.157 4.098-4.157h5.999l2.435-11.523h-4.93c-2.02 0-3.563-1.544-3.563-3.682 0-2.317 1.781-4.099 4.157-4.099h5.94l2.435-11.641c.475-2.376 1.96-3.564 4.455-3.564 2.553 0 4.276 2.198 3.8 4.574l-2.197 10.631h10.513l2.495-11.641c.475-2.376 2.019-3.564 4.395-3.564 2.554 0 4.395 2.138 3.86 4.574l-2.138 10.631h4.93c2.02 0 3.504 1.485 3.504 3.623 0 2.376-1.722 4.158-4.157 4.158h-5.88l-2.436 11.523h4.87c2.02 0 3.505 1.484 3.505 3.563 0 2.376-1.782 4.158-4.158 4.158h-5.88l-2.554 12.235c-.475 2.376-2.019 3.564-4.573 3.564zm.653-22.748l2.673-12.889H48.568l-2.613 12.889h11.522z" id="a"/></defs><g fill-rule="nonzero" fill="none"><use fill="#000" xlink:href="#a"/><use fill="#FFF" xlink:href="#a"/></g></svg>