<?xml version="1.0" encoding="UTF-8"?>
<svg width="41px" height="41px" viewBox="0 0 41 41" version="1.1" xmlns="http://www.w3.org/2000/svg" xmlns:xlink="http://www.w3.org/1999/xlink">
    <!-- Generator: Sketch 52.6 (67491) - http://www.bohemiancoding.com/sketch -->
    <title>hashtag</title>
    <desc>Created with Sketch.</desc>
    <g id="Page-1" stroke="none" stroke-width="1" fill="none" fill-rule="evenodd">
        <g id="Kiosk_2_CheckIn" transform="translate(-736.000000, -330.000000)" fill="#FFFFFF" fill-rule="nonzero">
            <g id="hashtag" transform="translate(736.000000, 330.000000)">
                <path d="M32.1822188,16.3421053 L30.7624086,24.3876969 L37.4617834,24.3876969 C39.1272209,24.3876969 40.4788803,25.7393564 40.4788803,27.4047938 C40.4788803,29.0702313 39.1272209,30.4218907 37.4617834,30.4218907 L29.6975508,30.4218907 L28.3622192,37.9887697 C28.1087831,39.4490446 26.8335568,40.4788803 25.3974187,40.4788803 C25.2244385,40.4788803 25.0474355,40.4668119 24.8704325,40.4346296 C23.2291317,40.1449883 22.1309085,38.5801207 22.4245726,36.93882 L23.5746189,30.4218907 L13.6056575,30.4218907 L12.2710359,37.9847469 C12.0175997,39.4490446 10.7423734,40.4788803 9.30623533,40.4788803 C9.13325511,40.4788803 8.9562521,40.4668119 8.77924908,40.4346296 C7.13794837,40.1449883 6.03972511,38.5801207 6.33338921,36.93882 L7.48343555,30.4218907 L3.26801877,30.4218907 C1.60258129,30.4218907 0.250921891,29.0702313 0.250921891,27.4047938 C0.250921891,25.7393564 1.60258129,24.3876969 3.26801877,24.3876969 L8.54829327,24.3876969 L9.96810357,16.3421053 L3.26801877,16.3421053 C1.60258129,16.3421053 0.250921891,14.9904459 0.250921891,13.3250084 C0.250921891,11.6595709 1.60258129,10.3079115 3.26801877,10.3079115 L11.0329613,10.3079115 L12.367583,2.74505531 C12.6532015,1.10375461 14.2100235,0.00553134428 15.8593698,0.295172645 C17.5006705,0.584813946 18.5988937,2.15370432 18.3052296,3.79098223 L17.1551833,10.3079115 L27.1241447,10.3079115 L28.4587663,2.74505531 C28.7443848,1.10777741 30.3012068,0.00955414013 31.9505531,0.299195441 C33.5918538,0.588836742 34.6900771,2.15370432 34.396413,3.79500503 L33.2470766,10.3079115 L37.4617834,10.3079115 C39.1272209,10.3079115 40.4788803,11.6595709 40.4788803,13.3250084 C40.4788803,14.9904459 39.1272209,16.3421053 37.4617834,16.3421053 L32.1822188,16.3421053 Z M26.0592869,16.3421053 L16.0903256,16.3421053 L14.6705153,24.3876969 L24.6394766,24.3876969 L26.0592869,16.3421053 Z" id="Combined-Shape"></path>
            </g>
        </g>
    </g>
</svg>