<svg width="38" height="38" viewBox="0 0 38 38" fill="none" xmlns="http://www.w3.org/2000/svg">
<path fill-rule="evenodd" clip-rule="evenodd" d="M19 0C29.4771 0 38 8.52286 38 19C38 29.4771 29.4771 38 19 38C8.52286 38 0 29.4771 0 19C0 8.52286 8.52286 0 19 0ZM22.0501 14.1591H17.2903L15.0468 24.7597C14.9606 25.1793 14.8962 25.5693 14.8533 25.9294C14.8103 26.2894 14.7889 26.62 14.7889 26.9224C14.7889 27.6211 14.8798 28.2175 15.0632 28.7132C15.2466 29.2089 15.4961 29.6171 15.8134 29.9391C16.1304 30.2614 16.5054 30.4992 16.9351 30.6495C17.3648 30.7982 17.8273 30.8743 18.323 30.8743C18.7524 30.8743 19.1771 30.8064 19.5967 30.6728C20.0165 30.539 20.3932 30.3306 20.7269 30.0515C21.059 29.7724 21.3366 29.4188 21.5579 28.9957C21.7776 28.5711 21.9099 28.0622 21.9528 27.4708C21.8338 27.5235 21.705 27.5715 21.5661 27.616C21.4256 27.6592 21.1993 27.6807 20.887 27.6807C20.426 27.6807 20.0876 27.5914 19.871 27.4146C19.6563 27.2362 19.5489 26.9173 19.5489 26.4547C19.5489 26.2811 19.5571 26.1078 19.5736 25.9294C19.5884 25.7526 19.6231 25.5707 19.6777 25.3889L22.0501 14.1591ZM20.5649 7.12364C20.1997 7.12364 19.8577 7.19309 19.5404 7.33358C19.2234 7.47406 18.9459 7.66571 18.7094 7.90692C18.4733 8.14813 18.2882 8.42725 18.1528 8.74611C18.0189 9.06339 17.9511 9.40374 17.9511 9.77062C17.9511 10.1372 18.0189 10.4776 18.1528 10.7949C18.2882 11.1121 18.4733 11.3865 18.7094 11.6176C18.9459 11.849 19.2234 12.0324 19.5404 12.1663C19.8577 12.3002 20.1996 12.3678 20.5649 12.3678C20.9299 12.3678 21.2721 12.3002 21.5892 12.1663C21.9064 12.0324 22.1874 11.849 22.4286 11.6176C22.6698 11.3865 22.8615 11.1121 23.002 10.7949C23.1406 10.4776 23.2116 10.1372 23.2116 9.77062C23.2116 9.40377 23.1406 9.06341 23.002 8.74611C22.8615 8.42723 22.6698 8.14812 22.4286 7.90692C22.1874 7.66571 21.9064 7.47406 21.5892 7.33358C21.2721 7.19309 20.9299 7.12364 20.5649 7.12364Z" fill="#0085FE"/>
</svg>
