<svg width="24" height="12" viewBox="0 0 24 12" fill="none" xmlns="http://www.w3.org/2000/svg">
    <path d="M21.432 3.95362V2.10525C21.432 1.23129 20.7817 0.48191 19.9315 0.48191C19.0813 0.48191 18.431 1.23129 18.431 2.10525V3.94282H16.4299V3.02081C16.4299 2.14685 15.7796 1.39747 14.9294 1.39747C14.0791 1.39747 13.4288 2.14685 13.4288 3.02081V3.94282H10.0177C9.39258 1.81874 7.56736 0.253662 5.3913 0.253662C2.68983 0.253662 0.531494 2.6592 0.531494 5.56616C0.531494 8.47313 2.68983 10.8787 5.3913 10.8787C7.56736 10.8787 9.39258 9.31359 10.0177 7.18951H21.2566C22.1068 7.18951 22.7571 6.44013 22.7571 5.56616C22.7571 4.75337 22.1947 4.04834 21.432 3.95362ZM5.3913 7.63189C4.38814 7.63189 3.53256 6.72749 3.53256 5.56607C3.53256 4.40466 4.38814 3.50025 5.3913 3.50025C6.39447 3.50025 7.25005 4.40466 7.25005 5.56607C7.25005 6.72757 6.39447 7.63189 5.3913 7.63189Z"  stroke-width="0.5"/>
</svg>
