<svg width="46" height="47" xmlns="http://www.w3.org/2000/svg"><path d="M22.93 46.738c12.534 0 22.91-10.4 22.91-22.91 0-12.533-10.399-22.91-22.932-22.91C10.398.918.021 11.295.021 23.828c0 12.51 10.399 22.91 22.91 22.91zm-5.862-17.317c-5.57-5.548-9.119-12.623-4.919-16.823.247-.247.517-.494.764-.742 1.28-1.212 2.538-1.145 3.616.405l2.92 4.155c.988 1.438.764 2.246-.292 3.37l-.943 1.01c-.315.314-.18.741-.045 1.01.45.81 1.64 2.247 2.942 3.55 1.348 1.347 2.718 2.493 3.572 2.964.314.18.786.225 1.055-.045l.966-.92c1.078-1.056 1.954-1.326 3.37-.337 1.93 1.37 3.099 2.178 4.222 2.964 1.415 1.034 1.752 2.314.337 3.617-.27.247-.494.516-.741.763-4.178 4.178-11.23.63-16.824-4.941z" fill="#FFF" fill-rule="nonzero"/></svg>