<svg width="104" height="104" viewBox="0 0 104 104" xmlns="http://www.w3.org/2000/svg" xmlns:xlink="http://www.w3.org/1999/xlink"><defs><path d="M93.39 127.828c7.206 0 13.534-2.52 18.573-8.144 2.93-3.282 4.746-7.09 4.746-10.84 0-2.871-1.054-5.625-3.75-7.5l-17.05-12.07c-2.579-1.876-4.805-2.754-6.797-2.754-2.52 0-4.805 1.464-7.324 3.984l-3.985 3.926c-.644.644-1.406.82-2.11.82-.878 0-1.698-.293-2.284-.586-3.399-1.816-9.317-6.914-14.825-12.363-5.449-5.508-10.546-11.367-12.363-14.824-.293-.586-.586-1.407-.586-2.227 0-.703.176-1.465.82-2.11l3.926-4.042c2.52-2.52 3.985-4.805 3.985-7.383 0-1.992-.938-4.16-2.754-6.797L39.659 28.102c-1.993-2.696-4.805-3.926-7.852-3.926-3.691 0-7.441 1.699-10.723 4.804-5.449 5.215-7.793 11.602-7.793 18.692 0 16.055 12.247 35.45 28.36 51.504 16.113 16.172 35.742 28.652 51.738 28.652z" id="a"/></defs><g transform="translate(-13 -24)" fill-rule="nonzero" fill="none"><use fill="#000" xlink:href="#a"/><use fill="#FFF" xlink:href="#a"/></g></svg>