<?xml version="1.0" encoding="UTF-8"?>
<svg width="41px" height="41px" viewBox="0 0 41 41" version="1.1" xmlns="http://www.w3.org/2000/svg" xmlns:xlink="http://www.w3.org/1999/xlink">
    <!-- Generator: Sketch 52.6 (67491) - http://www.bohemiancoding.com/sketch -->
    <title>Shape 2</title>
    <desc>Created with Sketch.</desc>
    <g id="Page-1" stroke="none" stroke-width="1" fill="none" fill-rule="evenodd">
        <g id="Kiosk_2_CheckIn" transform="translate(-422.000000, -328.000000)" fill="#FFFFFF" fill-rule="nonzero">
            <g id="Shape-2" transform="translate(422.000000, 328.000000)">
                <path d="M1.10134124e-13,7.57747768 L1.10134124e-13,1.57864118 C1.10134124e-13,0.706688592 0.706688592,3.55271368e-15 1.57864118,3.55271368e-15 L7.57747768,3.55271368e-15 C8.44943027,3.55271368e-15 9.15611886,0.706688592 9.15611886,1.57864118 C9.15611886,2.45059377 8.44943027,3.15728237 7.57747768,3.15728237 L3.15728237,3.15728237 L3.15728237,7.57747768 C3.15728237,8.44943027 2.45059377,9.15611886 1.57864118,9.15611886 C0.706688592,9.15611886 1.10134124e-13,8.44943027 1.10134124e-13,7.57747768 Z M38.8345731,3.55271368e-15 L32.8357366,3.55271368e-15 C31.963784,3.55271368e-15 31.2570954,0.706688592 31.2570954,1.57864118 C31.2570954,2.45059377 31.963784,3.15728237 32.8357366,3.15728237 L37.2559319,3.15728237 L37.2559319,7.57747768 C37.2559319,8.44943027 37.9626205,9.15611886 38.8345731,9.15611886 C39.7065257,9.15611886 40.4132143,8.44943027 40.4132143,7.57747768 L40.4132143,1.57864118 C40.4132143,0.706688592 39.7065257,3.55271368e-15 38.8345731,3.55271368e-15 Z M7.57747768,37.2559319 L3.15728237,37.2559319 L3.15728237,32.8357366 C3.15728237,31.963784 2.45059377,31.2570954 1.57864118,31.2570954 C0.706688592,31.2570954 1.10134124e-13,31.963784 1.10134124e-13,32.8357366 L1.10134124e-13,38.8345731 C1.10134124e-13,39.7065257 0.706688592,40.4132143 1.57864118,40.4132143 L7.57747768,40.4132143 C8.44943027,40.4132143 9.15611886,39.7065257 9.15611886,38.8345731 C9.15611886,37.9626205 8.44943027,37.2559319 7.57747768,37.2559319 Z M38.8345731,31.2570954 C37.9626205,31.2570954 37.2559319,31.963784 37.2559319,32.8357366 L37.2559319,37.2559319 L32.8357366,37.2559319 C31.963784,37.2559319 31.2570954,37.9626205 31.2570954,38.8345731 C31.2570954,39.7065257 31.963784,40.4132143 32.8357366,40.4132143 L38.8345731,40.4132143 C39.7065257,40.4132143 40.4132143,39.7065257 40.4132143,38.8345731 L40.4132143,32.8357366 C40.4132143,31.963784 39.7065257,31.2570954 38.8345731,31.2570954 Z M18.8252961,7.77480783 L18.8252961,17.2466549 C18.8252961,18.1186075 18.1186075,18.8252961 17.2466549,18.8252961 L7.77480783,18.8252961 C6.90285524,18.8252961 6.19616664,18.1186075 6.19616664,17.2466549 L6.19616664,7.77480783 C6.19616664,6.90285524 6.90285524,6.19616664 7.77480783,6.19616664 L17.2466549,6.19616664 C18.1186075,6.19616664 18.8252961,6.90285524 18.8252961,7.77480783 Z M15.6680137,9.35344901 L9.35344901,9.35344901 L9.35344901,15.6680137 L15.6680137,15.6680137 L15.6680137,9.35344901 Z M33.4277271,18.8252961 L23.95588,18.8252961 C23.0839274,18.8252961 22.3772388,18.1186075 22.3772388,17.2466549 L22.3772388,7.77480783 C22.3772388,6.90285524 23.0839274,6.19616664 23.95588,6.19616664 L33.4277271,6.19616664 C34.2996796,6.19616664 35.0063682,6.90285524 35.0063682,7.77480783 L35.0063682,17.2466549 C35.0063682,18.1186075 34.2996796,18.8252961 33.4277271,18.8252961 Z M31.8490859,9.35344901 L25.5345211,9.35344901 L25.5345211,15.6680137 L31.8490859,15.6680137 L31.8490859,9.35344901 Z M18.8252961,23.95588 L18.8252961,33.4277271 C18.8252961,34.2996796 18.1186075,35.0063682 17.2466549,35.0063682 L7.77480783,35.0063682 C6.90285524,35.0063682 6.19616664,34.2996796 6.19616664,33.4277271 L6.19616664,23.95588 C6.19616664,23.0839274 6.90285524,22.3772388 7.77480783,22.3772388 L17.2466549,22.3772388 C18.1186075,22.3772388 18.8252961,23.0839274 18.8252961,23.95588 Z M15.6680137,25.5345211 L9.35344901,25.5345211 L9.35344901,31.8490859 L15.6680137,31.8490859 L15.6680137,25.5345211 Z M31.3952265,32.9738677 L25.9883805,32.9738677 C25.1164279,32.9738677 24.4097393,32.2671791 24.4097393,31.3952265 L24.4097393,25.9883805 C24.4097393,25.1164279 25.1164279,24.4097393 25.9883805,24.4097393 L31.3952265,24.4097393 C32.2671791,24.4097393 32.9738677,25.1164279 32.9738677,25.9883805 L32.9738677,31.3952265 C32.9738677,32.2671791 32.2671791,32.9738677 31.3952265,32.9738677 Z M29.8165853,27.5670217 L27.5670217,27.5670217 L27.5670217,29.8165853 L29.8165853,29.8165853 L29.8165853,27.5670217 Z" id="Shape"></path>
            </g>
        </g>
    </g>
</svg>