<svg width="104" height="104" xmlns="http://www.w3.org/2000/svg" xmlns:xlink="http://www.w3.org/1999/xlink"><defs><path d="M19.682 58.863c3.164 0 4.863-1.758 4.863-4.922v-12.89c0-5.567 2.988-8.438 8.379-8.438h13.184c3.105 0 4.863-1.758 4.863-4.804 0-3.106-1.758-4.864-4.863-4.864H32.572c-11.718 0-17.695 5.918-17.695 17.461v13.535c0 3.164 1.758 4.922 4.805 4.922zm92.578 0c3.164 0 4.805-1.758 4.805-4.922V40.406c0-11.543-5.918-17.46-17.637-17.46H85.893c-3.164 0-4.922 1.757-4.922 4.863 0 3.046 1.758 4.804 4.922 4.804h13.183c5.332 0 8.38 2.871 8.38 8.438v12.89c0 3.164 1.698 4.922 4.804 4.922zM61.166 71.695c1.406 0 2.461-1.054 2.461-2.402V50.074a2.438 2.438 0 00-2.46-2.46H42.005a2.476 2.476 0 00-2.46 2.46v19.219c0 1.348 1.112 2.402 2.46 2.402h19.16zm28.828 0a2.376 2.376 0 002.403-2.402V50.074c0-1.347-1.055-2.46-2.403-2.46H70.776c-1.348 0-2.403 1.113-2.403 2.46v19.219a2.376 2.376 0 002.403 2.402h19.218zm-2.402-4.804H73.178V52.418h14.414v14.473zm-28.77 0H44.35V52.418h14.472v14.473zm24.551-4.22v-6.034h-5.976v6.035h5.976zm-28.77 0v-6.034h-6.035v6.035h6.036zm6.563 37.794c1.406 0 2.461-1.055 2.461-2.403V78.844c0-1.348-1.055-2.403-2.46-2.403H42.005c-1.348 0-2.46 1.055-2.46 2.403v19.219c0 1.347 1.112 2.402 2.46 2.402h19.16zM91.694 83.12v-5.976h-6.036v5.976h6.035zm-16.641 0v-5.976h-5.977v5.976h5.977zM58.823 95.72H44.35V81.246h14.472V95.72zm-4.22-4.278v-5.976h-6.035v5.976h6.036zm28.77 0v-5.976h-6.035v5.976h6.035zm16.055 33.692c11.719 0 17.637-5.86 17.637-17.461V94.137c0-3.106-1.7-4.864-4.805-4.864-3.164 0-4.805 1.758-4.805 4.864v12.89c0 5.625-3.047 8.496-8.379 8.496H85.893c-3.164 0-4.922 1.7-4.922 4.805 0 3.106 1.758 4.805 4.922 4.805h13.535zm-53.32 0c3.105 0 4.863-1.7 4.863-4.805 0-3.105-1.758-4.805-4.863-4.805H32.924c-5.39 0-8.379-2.87-8.379-8.496v-12.89c0-3.106-1.758-4.864-4.863-4.864-3.106 0-4.805 1.758-4.805 4.864v13.535c0 11.601 5.977 17.46 17.695 17.46h13.536zm28.945-25.371v-6.035h-5.977v6.035h5.977zm16.64 0v-6.035h-6.035v6.035h6.035z" id="a"/></defs><g transform="translate(-14 -22)" fill-rule="nonzero" fill="none"><use fill="#000" xlink:href="#a"/><use fill="#FFF" xlink:href="#a"/></g></svg>