<svg width="80" height="72" xmlns="http://www.w3.org/2000/svg" xmlns:xlink="http://www.w3.org/1999/xlink"><defs><path d="M84.625 44.848c1.688 0 3.023-1.055 3.023-2.743 0-1.02-.386-1.722-1.09-2.355L74.888 29.098V9.34c0-1.477-.95-2.426-2.426-2.426h-4.71c-1.442 0-2.427.95-2.427 2.426v11.074L52.527 8.707c-1.265-1.16-2.742-1.723-4.254-1.723-1.476 0-2.953.563-4.218 1.723L10.023 39.75c-.703.633-1.09 1.336-1.09 2.355 0 1.688 1.337 2.743 3.024 2.743 1.02 0 1.828-.457 2.531-1.16L47.184 13.91c.351-.351.703-.492 1.125-.492.386 0 .773.14 1.125.492l32.66 29.777c.703.704 1.547 1.16 2.531 1.16zm-44.789 32.66V53.707c0-1.512 1.02-2.531 2.566-2.531H54.25c1.547 0 2.531 1.02 2.531 2.531v23.8h13.36c4.746 0 7.629-2.777 7.629-7.452V45.762l-28.442-25.63c-.316-.316-.738-.491-1.09-.491-.386 0-.738.175-1.09.527l-28.3 25.77v24.117c0 4.675 2.847 7.453 7.593 7.453h13.395z" id="a"/></defs><g transform="translate(-8.5 -6)" fill-rule="nonzero" fill="none"><use fill="#000" xlink:href="#a"/><use fill="#FFF" xlink:href="#a"/></g></svg>