<svg width="51" height="52" viewBox="0 0 51 52" fill="none" xmlns="http://www.w3.org/2000/svg">
<rect x="0.308594" y="0.873047" width="50.2852" height="50.2852" rx="13.5906" fill="#F5F5F7"/>
<path d="M37.3429 35.3028H39.8345V37.7945H12.4268V35.3028H14.9184V14.1241C14.9184 13.7937 15.0496 13.4769 15.2833 13.2432C15.5169 13.0096 15.8338 12.8783 16.1642 12.8783H36.0971C36.4275 12.8783 36.7443 13.0096 36.978 13.2432C37.2116 13.4769 37.3429 13.7937 37.3429 14.1241V35.3028ZM21.1474 24.0906V26.5822H24.8848V24.0906H21.1474ZM21.1474 19.1074V21.599H24.8848V19.1074H21.1474ZM21.1474 29.0738V31.5654H24.8848V29.0738H21.1474ZM27.3764 29.0738V31.5654H31.1138V29.0738H27.3764ZM27.3764 24.0906V26.5822H31.1138V24.0906H27.3764ZM27.3764 19.1074V21.599H31.1138V19.1074H27.3764Z" fill="black"/>
</svg>
