<svg width="80" height="81" xmlns="http://www.w3.org/2000/svg" xmlns:xlink="http://www.w3.org/1999/xlink"><defs><path d="M31.469 82.008c4.922-4.922 14.625-21.586 23.308-30.235 5.66-5.66 11.954-2.636 18.493-5.273l-5.66-20.707c-.704-2.531.316-4.64 3.269-5.45l12.586-3.374c-.422-1.23-1.547-2.953-2.988-4.43-7.77-7.945-20.602-8.086-28.301-.773-11.18 10.652-2.742 21.832-9.95 29.004-9.14 9.175-22.5 15.68-29.355 22.605-6.012 6.082-6.328 13.746-.703 19.371 5.59 5.59 13.29 5.274 19.3-.738zM52.14 31.137c-.176-.598.246-1.336.949-1.547l7.7-2.074a1.273 1.273 0 011.546.914c.246.773-.21 1.441-.914 1.617l-7.664 2.039c-.738.176-1.371-.176-1.617-.95zm24.925 13.64c1.266-.738 2.567-1.757 3.938-3.058 4.184-3.832 6.293-9.598 5.379-13.852l-10.09 2.778c-1.09.316-2.039.386-3.059.21l3.832 13.922zm-23.94-9.703c-.177-.597.245-1.336.913-1.511l7.734-2.11c.633-.14 1.372.246 1.547.914.246.774-.21 1.442-.914 1.617l-7.664 2.04c-.738.21-1.37-.176-1.617-.95zm1.019 3.938c-.176-.703.21-1.336.914-1.512l7.699-2.074c.738-.211 1.406.21 1.582.879.176.668-.246 1.406-.879 1.582l-7.734 2.074c-.703.21-1.442-.176-1.582-.95zm-36.563 38.32c-2.215-2.215-2.25-5.941-.07-8.191 2.215-2.286 5.941-2.18 8.261-.036 2.356 2.25 2.145 5.907-.035 8.262-2.074 2.215-5.976 2.18-8.156-.035z" id="a"/></defs><g transform="translate(-7.5 -6)" fill-rule="nonzero" fill="none"><use fill="#000" xlink:href="#a"/><use fill="#FFF" xlink:href="#a"/></g></svg>