<svg width="26" height="24" viewBox="0 0 26 24" fill="none" xmlns="http://www.w3.org/2000/svg">
    <path d="M11.9773 0.862888C12.4203 0.0559176 13.5797 0.0559164 14.0227 0.862887L17.1132 6.49246C17.2808 6.79768 17.5759 7.01211 17.918 7.07715L24.2271 8.27679C25.1314 8.44875 25.4897 9.55137 24.8591 10.2221L20.4601 14.901C20.2216 15.1546 20.1089 15.5016 20.1527 15.847L20.9614 22.218C21.0773 23.1313 20.1394 23.8127 19.3066 23.4203L13.4974 20.6824C13.1824 20.534 12.8176 20.534 12.5026 20.6824L6.69336 23.4203C5.86063 23.8127 4.92269 23.1313 5.03861 22.218L5.84729 15.847C5.89114 15.5016 5.77841 15.1546 5.5399 14.901L1.14089 10.2221C0.510313 9.55136 0.868575 8.44875 1.77295 8.27679L8.08201 7.07715C8.42408 7.01211 8.71921 6.79768 8.88678 6.49246L11.9773 0.862888Z" fill="#398188"/>
</svg>
