<svg width="71" height="68" xmlns="http://www.w3.org/2000/svg" xmlns:xlink="http://www.w3.org/1999/xlink"><defs><path d="M52.738 78.387V22.242l-16.347-9.984c-.668-.387-1.407-.703-2.145-.844v56.848l16.664 9.351c.598.317 1.23.598 1.828.774zm-39.761-.914c.949 0 1.863-.317 2.988-.985l13.64-7.418V12.082c-.632.281-1.265.598-1.898.984l-15.715 8.965c-2.074 1.16-3.058 2.813-3.058 5.133v46.23c0 2.602 1.511 4.079 4.043 4.079zm44.437.773c.352-.14.703-.281 1.055-.492l17.156-9.774c2.074-1.16 3.059-2.812 3.059-5.132V16.582c0-2.566-1.512-4.043-4.043-4.043-.95 0-1.864.316-2.989.95l-14.238 7.98v56.777z" id="a"/></defs><g transform="translate(-8 -11)" fill-rule="nonzero" fill="none"><use fill="#000" xlink:href="#a"/><use fill="#FFF" xlink:href="#a"/></g></svg>