<?xml version="1.0" encoding="UTF-8"?>
<svg width="241px" height="183px" viewBox="0 0 241 183" version="1.1" xmlns="http://www.w3.org/2000/svg" xmlns:xlink="http://www.w3.org/1999/xlink">
    <!-- Generator: Sketch 52.6 (67491) - http://www.bohemiancoding.com/sketch -->
    <title>white-logo</title>
    <desc>Created with Sketch.</desc>
    <defs>
        <polygon id="path-1" points="9.35028656e-05 0.4796697 240.600639 0.4796697 240.600639 109.565629 9.35028656e-05 109.565629"></polygon>
    </defs>
    <g id="Page-1" stroke="none" stroke-width="1" fill="none" fill-rule="evenodd">
        <g id="Kiosk_1_Start" transform="translate(-419.000000, -313.000000)">
            <g id="white-logo" transform="translate(419.500000, 313.000000)">
                <g id="Group-34" transform="translate(0.000000, 0.455359)">
                    <g id="Group-37">
                        <g id="Group-3">
                            <mask id="mask-2" fill="white">
                                <use xlink:href="#path-1"></use>
                            </mask>
                            <g id="Clip-2"></g>
                            <path d="M171.393651,0.479576198 C160.867099,0.479576198 151.538318,5.51003037 145.602756,13.2726383 C144.641546,14.5302518 99.3291226,83.223067 99.3291226,83.223067 C99.1963486,83.4343835 99.0635745,83.6410249 98.9186451,83.842991 C96.8092204,86.777111 93.3879506,88.7051401 89.4991664,88.7051401 C87.823595,88.7051401 86.2387215,88.3348687 84.7997124,87.6962441 C82.894124,86.8509782 81.2699792,85.506407 80.0684674,83.8299006 C79.9310182,83.6382198 79.8047893,83.4418637 79.6785604,83.2408326 L41.6023235,25.6832736 C45.5790004,23.3653376 50.0764882,21.8515262 54.8937558,21.4027124 C55.7511771,21.323235 56.6188837,21.2839638 57.4950056,21.2708734 L58.4010483,21.2708734 C67.1884476,21.3924271 75.1371262,24.979197 80.9230836,30.7483238 C82.080649,31.9021492 102.050991,61.6192299 102.050991,61.6192299 L114.165222,43.3066937 L114.515858,42.7765325 C114.515858,42.7765325 100.508194,21.6991165 100.178129,21.2708734 C91.1466869,9.55963947 77.3587543,1.71661911 61.7016995,0.626375697 L61.6053915,0.479576198 L9.35028656e-05,0.479576198 L61.1771484,92.9585854 C61.9092758,94.2601453 62.7405163,95.4953182 63.6381438,96.6781294 C66.1589811,100.000286 69.2969372,102.814722 72.8921224,104.961548 C73.008066,105.03074 73.1221395,105.103673 73.2390181,105.17193 C76.0628046,106.8101 79.1483992,108.041533 82.4284797,108.76992 C84.7071445,109.276706 87.0680919,109.565629 89.4991664,109.565629 C91.9293059,109.565629 94.2893182,109.276706 96.567983,108.770855 C104.184726,107.077518 110.773873,102.709064 115.340553,96.7043102 C116.255011,95.5009283 161.8975,26.2527061 162.231305,25.8216579 C164.356626,23.0726736 167.649796,21.2708734 171.393651,21.2708734 L226.846461,21.2708734 L240.600732,0.479576198 L171.393651,0.479576198 Z" id="Fill-1" fill="#FFFFFF" mask="url(#mask-2)"></path>
                        </g>
                        <path d="M195.647827,30.7479498 L120.300413,144.646595 L102.038368,117.040809 L101.962631,116.925801 L101.847622,117.099716 C97.9438777,118.303098 93.7979606,118.955748 89.4996339,118.955748 C85.1985021,118.955748 81.05165,118.303098 77.1479054,117.099716 L120.300413,182.33012 L220.577561,30.7479498 L195.647827,30.7479498 Z" id="Fill-4" fill="#FFFFFF"></path>
                    </g>
                </g>
                <path d="M76.957627,117.495327 C77.0202739,117.514962 77.0838559,117.534598 77.1474378,117.554234 L77.0333643,117.381253 L76.957627,117.495327 Z" id="Fill-6" fill="#121212"></path>
            </g>
        </g>
    </g>
</svg>