<svg width="177" height="177" viewBox="0 0 177 177" fill="none" xmlns="http://www.w3.org/2000/svg">
    <rect x="1.5" y="1.5" width="174" height="174" rx="26.16" stroke="white" stroke-width="3"/>
    <path d="M99.0587 123.075C99.0587 129.155 94.1301 134.084 88.0503 134.084C81.9706 134.084 77.0419 129.155 77.0419 123.075C77.0419 116.996 81.9706 112.067 88.0503 112.067C94.1301 112.067 99.0587 116.996 99.0587 123.075Z" fill="white"/>
    <path d="M88.0502 46.0167C67.3475 46.0167 48.5418 54.1881 34.7014 67.47C32.5981 69.4884 32.4332 72.7966 34.3254 75.0141L63.0343 108.659C64.076 109.88 65.5988 110.586 67.2037 110.591C68.8086 110.596 70.3358 109.9 71.3854 108.686C75.4309 104.006 81.3931 101.059 88.0499 101.059C94.7067 101.059 100.669 104.006 104.714 108.686C105.764 109.9 107.291 110.596 108.896 110.591C110.501 110.586 112.024 109.88 113.065 108.659L141.775 75.0142C143.667 72.7967 143.502 69.4885 141.399 67.47C127.559 54.1881 108.753 46.0167 88.0502 46.0167Z" fill="white"/>
</svg>
